<mxfile host="app.diagrams.net" modified="2023-06-03T14:50:56.282Z" agent="Mozilla/5.0 (X11; Ubuntu; Linux x86_64; rv:109.0) Gecko/20100101 Firefox/110.0" etag="e-37LShgRGNHEI_pRWsK" version="21.3.7" type="google">
  <diagram name="Page-1" id="WehaiZuKYuL6ypRMUH3J">
    <mxGraphModel grid="1" page="1" gridSize="10" guides="1" tooltips="1" connect="1" arrows="1" fold="1" pageScale="1" pageWidth="3300" pageHeight="4681" math="0" shadow="0">
      <root>
        <mxCell id="0" />
        <mxCell id="1" parent="0" />
        <mxCell id="DrZoC39N0YFVQSzGR5KV-2" value="Usuario" style="html=1;overflow=block;blockSpacing=1;shape=umlActor;labelPosition=center;verticalLabelPosition=bottom;verticalAlign=top;whiteSpace=nowrap;fontSize=16.7;align=center;spacing=0;strokeColor=#666666;strokeOpacity=100;rounded=1;absoluteArcSize=1;arcSize=9;strokeWidth=2.3;lucidId=v-9Zh1rxyZDl;fillColor=#f5f5f5;gradientColor=#b3b3b3;fontColor=#000000;" vertex="1" parent="1">
          <mxGeometry x="195" y="165" width="60" height="135" as="geometry" />
        </mxCell>
        <mxCell id="DrZoC39N0YFVQSzGR5KV-3" value="Pantalla Principal" style="html=1;overflow=block;blockSpacing=1;whiteSpace=wrap;ellipse;fontSize=13;spacing=3.8;strokeOpacity=100;rounded=1;absoluteArcSize=1;arcSize=9;strokeWidth=2.3;lucidId=m_9ZVBL-fcfm;fontColor=#000000;" vertex="1" parent="1">
          <mxGeometry x="540" y="188" width="105" height="98" as="geometry" />
        </mxCell>
        <mxCell id="DrZoC39N0YFVQSzGR5KV-4" value="" style="html=1;overflow=block;blockSpacing=1;whiteSpace=wrap;fontSize=13;spacing=0;strokeColor=#5e5e5e;strokeOpacity=100;rounded=1;absoluteArcSize=1;arcSize=9;strokeWidth=2.3;lucidId=Ua-ZBc27CYNb;fontColor=#000000;" vertex="1" parent="1">
          <mxGeometry x="285" y="240" width="150" height="2" as="geometry" />
        </mxCell>
        <mxCell id="DrZoC39N0YFVQSzGR5KV-5" value="" style="html=1;overflow=block;blockSpacing=1;whiteSpace=wrap;fontSize=13;spacing=0;strokeColor=#5e5e5e;strokeOpacity=100;rounded=1;absoluteArcSize=1;arcSize=9;rotation=-270;strokeWidth=2.3;lucidId=_a-ZSmVuOn7P;fontColor=#000000;" vertex="1" parent="1">
          <mxGeometry x="385" y="243" width="98" height="2" as="geometry" />
        </mxCell>
        <mxCell id="DrZoC39N0YFVQSzGR5KV-6" value="" style="html=1;overflow=block;blockSpacing=1;whiteSpace=wrap;fontSize=13;spacing=0;strokeColor=#5e5e5e;strokeOpacity=100;rounded=1;absoluteArcSize=1;arcSize=9;strokeWidth=2.3;lucidId=qb-ZYocc4o6I;fontColor=#000000;" vertex="1" parent="1">
          <mxGeometry x="435" y="242" width="105" height="2" as="geometry" />
        </mxCell>
        <mxCell id="DrZoC39N0YFVQSzGR5KV-7" value="" style="html=1;overflow=block;blockSpacing=1;whiteSpace=wrap;fontSize=13;spacing=0;strokeColor=#5e5e5e;strokeOpacity=100;rounded=1;absoluteArcSize=1;arcSize=0;strokeWidth=2.3;lucidId=Lb-ZauoieuXv;fontColor=#000000;" vertex="1" parent="1">
          <mxGeometry x="645" y="245" width="225" height="2" as="geometry" />
        </mxCell>
        <mxCell id="DrZoC39N0YFVQSzGR5KV-9" value="Usuarios" style="html=1;overflow=block;blockSpacing=1;whiteSpace=wrap;ellipse;fontSize=16.7;align=center;spacing=3.8;strokeOpacity=100;rounded=1;absoluteArcSize=1;arcSize=9;strokeWidth=2.3;lucidId=Id-Z9ajLzw0J;labelBorderColor=none;" vertex="1" parent="1">
          <mxGeometry x="1290" y="62" width="101" height="98" as="geometry" />
        </mxCell>
        <mxCell id="DrZoC39N0YFVQSzGR5KV-10" value="" style="html=1;overflow=block;blockSpacing=1;whiteSpace=wrap;fontSize=13;spacing=0;strokeColor=#5e5e5e;strokeOpacity=100;rounded=1;absoluteArcSize=1;arcSize=9;strokeWidth=2.3;lucidId=0d-ZeZwxma3P;fontColor=#000000;" vertex="1" parent="1">
          <mxGeometry x="870" y="247" width="150" height="2" as="geometry" />
        </mxCell>
        <mxCell id="DrZoC39N0YFVQSzGR5KV-11" value="" style="html=1;jettySize=18;whiteSpace=wrap;fontSize=13;strokeColor=#5E5E5E;strokeWidth=1.5;rounded=1;arcSize=12;edgeStyle=orthogonalEdgeStyle;startArrow=none;endArrow=block;endFill=1;lucidId=dg-ZWHE85~gX;fontColor=#000000;" edge="1" parent="1">
          <mxGeometry width="100" height="100" relative="1" as="geometry">
            <Array as="points" />
            <mxPoint x="328" y="210" as="sourcePoint" />
            <mxPoint x="403" y="210" as="targetPoint" />
          </mxGeometry>
        </mxCell>
        <mxCell id="DrZoC39N0YFVQSzGR5KV-12" value="1-Acceder a Seccion" style="text;html=1;resizable=0;labelBackgroundColor=default;align=center;verticalAlign=middle;fontStyle=1;fontColor=#000000;fontSize=13.3;" vertex="1" parent="DrZoC39N0YFVQSzGR5KV-11">
          <mxGeometry relative="1" as="geometry">
            <mxPoint x="-6" y="-6" as="offset" />
          </mxGeometry>
        </mxCell>
        <mxCell id="DrZoC39N0YFVQSzGR5KV-13" value="" style="html=1;jettySize=18;whiteSpace=wrap;fontSize=13;strokeColor=#5E5E5E;strokeWidth=1.5;rounded=1;arcSize=12;edgeStyle=orthogonalEdgeStyle;startArrow=none;endArrow=block;endFill=1;lucidId=Bg-ZRis4GtDD;fontColor=#000000;" edge="1" parent="1">
          <mxGeometry width="100" height="100" relative="1" as="geometry">
            <Array as="points" />
            <mxPoint x="675" y="210" as="sourcePoint" />
            <mxPoint x="750" y="210" as="targetPoint" />
          </mxGeometry>
        </mxCell>
        <mxCell id="DrZoC39N0YFVQSzGR5KV-14" value="2-Solicitar Usuario" style="text;html=1;resizable=0;labelBackgroundColor=default;align=center;verticalAlign=middle;fontStyle=1;fontColor=#000000;fontSize=13.3;" vertex="1" parent="DrZoC39N0YFVQSzGR5KV-13">
          <mxGeometry relative="1" as="geometry">
            <mxPoint y="-6" as="offset" />
          </mxGeometry>
        </mxCell>
        <mxCell id="DrZoC39N0YFVQSzGR5KV-17" value="" style="html=1;overflow=block;blockSpacing=1;whiteSpace=wrap;fontSize=13;spacing=0;strokeColor=#5e5e5e;strokeOpacity=100;rounded=1;absoluteArcSize=1;arcSize=9;rotation=-27.028585474156813;strokeWidth=2.3;lucidId=yh-ZI30L3V71;fontColor=#000000;" vertex="1" parent="1">
          <mxGeometry x="1067.71" y="179.46" width="230" height="2" as="geometry" />
        </mxCell>
        <mxCell id="DrZoC39N0YFVQSzGR5KV-18" value="" style="html=1;jettySize=18;whiteSpace=wrap;fontSize=13;strokeColor=#82b366;strokeWidth=1.5;rounded=1;arcSize=12;edgeStyle=orthogonalEdgeStyle;startArrow=none;endArrow=block;endFill=1;lucidId=ti-ZGGk_tV3a;fillColor=#d5e8d4;fontColor=#000000;" edge="1" parent="1">
          <mxGeometry width="100" height="100" relative="1" as="geometry">
            <Array as="points">
              <mxPoint x="825" y="286" />
              <mxPoint x="670" y="286" />
            </Array>
            <mxPoint x="979" y="285" as="sourcePoint" />
            <mxPoint x="670" y="280" as="targetPoint" />
          </mxGeometry>
        </mxCell>
        <mxCell id="DrZoC39N0YFVQSzGR5KV-19" value="5-Devuelve perfil" style="text;html=1;resizable=0;labelBackgroundColor=default;align=center;verticalAlign=middle;fontStyle=1;fontColor=#000000;fontSize=13.3;" vertex="1" parent="DrZoC39N0YFVQSzGR5KV-18">
          <mxGeometry relative="1" as="geometry">
            <mxPoint x="-2" y="-15" as="offset" />
          </mxGeometry>
        </mxCell>
        <mxCell id="DrZoC39N0YFVQSzGR5KV-21" value="" style="html=1;jettySize=18;whiteSpace=wrap;fontSize=13;strokeColor=#82b366;strokeWidth=1.5;rounded=0;startArrow=none;endArrow=block;endFill=1;lucidId=gn-ZjyCrW-MD;fillColor=#d5e8d4;fontColor=#000000;" edge="1" parent="1">
          <mxGeometry width="100" height="100" relative="1" as="geometry">
            <Array as="points" />
            <mxPoint x="1119" y="179" as="sourcePoint" />
            <mxPoint x="1209" y="134" as="targetPoint" />
          </mxGeometry>
        </mxCell>
        <mxCell id="DrZoC39N0YFVQSzGR5KV-26" value="" style="html=1;jettySize=18;whiteSpace=wrap;fontSize=13;strokeColor=#82b366;strokeWidth=1.5;rounded=1;arcSize=12;edgeStyle=orthogonalEdgeStyle;startArrow=none;endArrow=block;endFill=1;lucidId=ay-ZF4q9Ovbn;fillColor=#d5e8d4;fontColor=#000000;" edge="1" parent="1">
          <mxGeometry width="100" height="100" relative="1" as="geometry">
            <Array as="points" />
            <mxPoint x="540" y="290" as="sourcePoint" />
            <mxPoint x="452.5" y="290" as="targetPoint" />
          </mxGeometry>
        </mxCell>
        <mxCell id="DrZoC39N0YFVQSzGR5KV-27" value="7-Devuelve perfil" style="text;html=1;resizable=0;labelBackgroundColor=default;align=center;verticalAlign=middle;fontStyle=1;fontColor=#000000;fontSize=13.3;" vertex="1" parent="DrZoC39N0YFVQSzGR5KV-26">
          <mxGeometry relative="1" as="geometry">
            <mxPoint x="-8" y="-20" as="offset" />
          </mxGeometry>
        </mxCell>
        <mxCell id="DrZoC39N0YFVQSzGR5KV-30" value="" style="html=1;jettySize=18;whiteSpace=wrap;fontSize=13;strokeColor=#82b366;strokeWidth=1.5;rounded=1;arcSize=12;edgeStyle=orthogonalEdgeStyle;startArrow=none;endArrow=block;endFill=1;lucidId=7A-ZBVkqriii;fillColor=#d5e8d4;fontColor=#000000;" edge="1" parent="1">
          <mxGeometry width="100" height="100" relative="1" as="geometry">
            <Array as="points" />
            <mxPoint x="317.5" y="175" as="sourcePoint" />
            <mxPoint x="402.5" y="175" as="targetPoint" />
          </mxGeometry>
        </mxCell>
        <mxCell id="DrZoC39N0YFVQSzGR5KV-31" value="9- Enviar solicitud" style="text;html=1;resizable=0;labelBackgroundColor=default;align=center;verticalAlign=middle;fontStyle=1;fontColor=#000000;fontSize=13.3;" vertex="1" parent="DrZoC39N0YFVQSzGR5KV-30">
          <mxGeometry relative="1" as="geometry">
            <mxPoint x="-8" y="-20" as="offset" />
          </mxGeometry>
        </mxCell>
        <mxCell id="DrZoC39N0YFVQSzGR5KV-32" value="" style="html=1;jettySize=18;whiteSpace=wrap;fontSize=13;strokeColor=#82b366;strokeWidth=1.5;rounded=1;arcSize=12;edgeStyle=orthogonalEdgeStyle;startArrow=none;endArrow=block;endFill=1;lucidId=mB-Zb19M5kZz;fillColor=#d5e8d4;fontColor=#000000;" edge="1" parent="1">
          <mxGeometry width="100" height="100" relative="1" as="geometry">
            <Array as="points" />
            <mxPoint x="450" y="178.03" as="sourcePoint" />
            <mxPoint x="540" y="178.03" as="targetPoint" />
          </mxGeometry>
        </mxCell>
        <mxCell id="DrZoC39N0YFVQSzGR5KV-33" value="&lt;div&gt;10- Enviar solicitud&lt;/div&gt;" style="text;html=1;resizable=0;labelBackgroundColor=default;align=center;verticalAlign=middle;fontStyle=1;fontColor=#000000;fontSize=13.3;" vertex="1" parent="DrZoC39N0YFVQSzGR5KV-32">
          <mxGeometry relative="1" as="geometry">
            <mxPoint x="2" y="-20" as="offset" />
          </mxGeometry>
        </mxCell>
        <mxCell id="DrZoC39N0YFVQSzGR5KV-34" value="" style="html=1;jettySize=18;whiteSpace=wrap;fontSize=13;strokeColor=#82b366;strokeWidth=1.5;rounded=1;arcSize=12;edgeStyle=orthogonalEdgeStyle;startArrow=none;endArrow=block;endFill=1;lucidId=GB-Ze.mVQOiI;fillColor=#d5e8d4;fontColor=#000000;endSize=6;targetPerimeterSpacing=0;" edge="1" parent="1">
          <mxGeometry width="100" height="100" relative="1" as="geometry">
            <Array as="points">
              <mxPoint x="798" y="178" />
              <mxPoint x="798" y="180" />
            </Array>
            <mxPoint x="645" y="178.03" as="sourcePoint" />
            <mxPoint x="950" y="180" as="targetPoint" />
          </mxGeometry>
        </mxCell>
        <mxCell id="DrZoC39N0YFVQSzGR5KV-35" value="12- Enviar solicitud" style="text;html=1;resizable=0;labelBackgroundColor=default;align=center;verticalAlign=middle;fontStyle=1;fontColor=#000000;fontSize=13.3;" vertex="1" parent="DrZoC39N0YFVQSzGR5KV-34">
          <mxGeometry relative="1" as="geometry">
            <mxPoint x="11" y="-20" as="offset" />
          </mxGeometry>
        </mxCell>
        <mxCell id="DrZoC39N0YFVQSzGR5KV-47" style="edgeStyle=orthogonalEdgeStyle;rounded=0;orthogonalLoop=1;jettySize=auto;html=1;exitX=0;exitY=0;exitDx=0;exitDy=0;fontColor=#000000;" edge="1" parent="1" source="DrZoC39N0YFVQSzGR5KV-33">
          <mxGeometry relative="1" as="geometry">
            <mxPoint x="500" y="158.03" as="targetPoint" />
          </mxGeometry>
        </mxCell>
        <mxCell id="DrZoC39N0YFVQSzGR5KV-51" value="" style="html=1;jettySize=18;whiteSpace=wrap;fontSize=13;strokeColor=#82b366;strokeWidth=1.5;rounded=1;arcSize=12;edgeStyle=orthogonalEdgeStyle;startArrow=none;endArrow=block;endFill=1;lucidId=ay-ZF4q9Ovbn;fillColor=#d5e8d4;fontColor=#000000;" edge="1" parent="1">
          <mxGeometry width="100" height="100" relative="1" as="geometry">
            <Array as="points" />
            <mxPoint x="395" y="280.18" as="sourcePoint" />
            <mxPoint x="310" y="280" as="targetPoint" />
          </mxGeometry>
        </mxCell>
        <mxCell id="DrZoC39N0YFVQSzGR5KV-52" value="8-Devuelve perfil" style="text;html=1;resizable=0;labelBackgroundColor=default;align=center;verticalAlign=middle;fontStyle=1;fontColor=#000000;fontSize=13.3;" vertex="1" parent="DrZoC39N0YFVQSzGR5KV-51">
          <mxGeometry relative="1" as="geometry">
            <mxPoint x="-5" y="-18" as="offset" />
          </mxGeometry>
        </mxCell>
        <mxCell id="DrZoC39N0YFVQSzGR5KV-53" value="" style="html=1;jettySize=18;whiteSpace=wrap;fontSize=13;strokeColor=#82b366;strokeWidth=1.5;rounded=1;arcSize=12;edgeStyle=orthogonalEdgeStyle;startArrow=none;endArrow=block;endFill=1;lucidId=GB-Ze.mVQOiI;fillColor=#d5e8d4;fontColor=#000000;" edge="1" parent="1">
          <mxGeometry width="100" height="100" relative="1" as="geometry">
            <Array as="points">
              <mxPoint x="360.75" y="220" />
              <mxPoint x="360.75" y="220" />
            </Array>
            <mxPoint x="310.75" y="220" as="sourcePoint" />
            <mxPoint x="409.25" y="220" as="targetPoint" />
          </mxGeometry>
        </mxCell>
        <mxCell id="DrZoC39N0YFVQSzGR5KV-56" value="" style="html=1;jettySize=18;whiteSpace=wrap;fontSize=13;strokeColor=#82b366;strokeWidth=1.5;rounded=0;startArrow=none;endArrow=block;endFill=1;lucidId=gn-ZjyCrW-MD;fillColor=#d5e8d4;fontColor=#000000;" edge="1" parent="1">
          <mxGeometry width="100" height="100" relative="1" as="geometry">
            <Array as="points" />
            <mxPoint x="654" y="220" as="sourcePoint" />
            <mxPoint x="970" y="220" as="targetPoint" />
          </mxGeometry>
        </mxCell>
        <mxCell id="DrZoC39N0YFVQSzGR5KV-69" value="3-Buscar Usuario" style="text;html=1;align=center;verticalAlign=middle;resizable=0;points=[];autosize=1;strokeColor=none;fillColor=none;rotation=-27;fontSize=13;fontStyle=1;fontColor=#000000;" vertex="1" parent="1">
          <mxGeometry x="1085" y="130" width="130" height="30" as="geometry" />
        </mxCell>
        <mxCell id="DrZoC39N0YFVQSzGR5KV-71" value="4-Devuelve Usuario" style="text;html=1;align=center;verticalAlign=middle;resizable=0;points=[];autosize=1;strokeColor=none;fillColor=none;rotation=-27;fontSize=13;fontStyle=1;fontColor=#000000;" vertex="1" parent="1">
          <mxGeometry x="1130" y="183" width="140" height="30" as="geometry" />
        </mxCell>
        <mxCell id="DrZoC39N0YFVQSzGR5KV-72" value="" style="html=1;jettySize=18;whiteSpace=wrap;fontSize=13;strokeColor=#82b366;strokeWidth=1.5;rounded=0;startArrow=none;endArrow=block;endFill=1;lucidId=gn-ZjyCrW-MD;fillColor=#d5e8d4;fontColor=#000000;" edge="1" parent="1">
          <mxGeometry width="100" height="100" relative="1" as="geometry">
            <Array as="points" />
            <mxPoint x="1248" y="195.5" as="sourcePoint" />
            <mxPoint x="1158" y="240" as="targetPoint" />
          </mxGeometry>
        </mxCell>
        <mxCell id="DrZoC39N0YFVQSzGR5KV-76" value="" style="html=1;jettySize=18;whiteSpace=wrap;fontSize=13;strokeColor=#82b366;strokeWidth=1.5;rounded=0;startArrow=none;endArrow=block;endFill=1;lucidId=gn-ZjyCrW-MD;fillColor=#d5e8d4;fontColor=#000000;" edge="1" parent="1">
          <mxGeometry width="100" height="100" relative="1" as="geometry">
            <Array as="points" />
            <mxPoint x="1085" y="145" as="sourcePoint" />
            <mxPoint x="1175" y="100" as="targetPoint" />
          </mxGeometry>
        </mxCell>
        <mxCell id="DrZoC39N0YFVQSzGR5KV-77" value="13- Enviar solicitud" style="text;html=1;resizable=0;labelBackgroundColor=default;align=center;verticalAlign=middle;fontStyle=1;fontColor=#000000;fontSize=13.3;rotation=-25;" vertex="1" parent="1">
          <mxGeometry x="1119.9982352941176" y="111" as="geometry" />
        </mxCell>
        <mxCell id="DrZoC39N0YFVQSzGR5KV-86" style="edgeStyle=orthogonalEdgeStyle;rounded=0;orthogonalLoop=1;jettySize=auto;html=1;exitX=1;exitY=1;exitDx=0;exitDy=0;entryX=0.5;entryY=1;entryDx=0;entryDy=0;fontColor=#000000;" edge="1" parent="1" source="DrZoC39N0YFVQSzGR5KV-81" target="DrZoC39N0YFVQSzGR5KV-81">
          <mxGeometry relative="1" as="geometry">
            <mxPoint x="1060" y="310" as="targetPoint" />
            <Array as="points">
              <mxPoint x="1094" y="315" />
              <mxPoint x="1060" y="315" />
              <mxPoint x="1060" y="295" />
            </Array>
          </mxGeometry>
        </mxCell>
        <mxCell id="DrZoC39N0YFVQSzGR5KV-81" value="Control" style="html=1;overflow=block;blockSpacing=1;whiteSpace=wrap;ellipse;fontSize=16.7;align=center;spacing=3.8;strokeOpacity=100;rounded=1;absoluteArcSize=1;arcSize=9;strokeWidth=2.3;lucidId=7c-ZnBiSTvn4;fontColor=#000000;" vertex="1" parent="1">
          <mxGeometry x="1010" y="197" width="98" height="98" as="geometry" />
        </mxCell>
        <mxCell id="DrZoC39N0YFVQSzGR5KV-83" value="" style="line;strokeWidth=2;html=1;" vertex="1" parent="1">
          <mxGeometry x="1275.5" y="155" width="130" height="10" as="geometry" />
        </mxCell>
      </root>
    </mxGraphModel>
  </diagram>
</mxfile>
